<svg xmlns="http://www.w3.org/2000/svg" viewBox="0 0 472.26 120.55"><defs><style>.cls-1{fill:#ed1c24;}</style></defs><title>linfordasdf</title><g id="Layer_2" data-name="Layer 2"><g id="Layer_1-2" data-name="Layer 1"><path class="cls-1" d="M15.42,1.4V82.35a26.29,26.29,0,0,0,.52,5.34,36.43,36.43,0,0,0,1.41,5,19.48,19.48,0,0,0,2.54,4.12,29.83,29.83,0,0,0,3.24,3.41,29.07,29.07,0,0,0,7.27,3.15,24.46,24.46,0,0,0,7.8.88l17.52-.17v15.06H36.27L30,118.62a37.11,37.11,0,0,1-21-9.64,52,52,0,0,1-3.33-4c-1.05-1.4-2.05-2.86-3-4.38A53.94,53.94,0,0,1,.88,94.44,39.34,39.34,0,0,1,0,88V1.4Z"/><path class="cls-1" d="M79.53,10.34a9.26,9.26,0,0,1,4.2,1A8.31,8.31,0,0,1,86.89,14a9.6,9.6,0,0,1,1,1.58c.29.58.55,1.16.79,1.75a1.87,1.87,0,0,0,.09.61,2.25,2.25,0,0,1,.08.61,1.37,1.37,0,0,0,.09.44,1.43,1.43,0,0,1,.09.44V20.5a4.75,4.75,0,0,1-.09,1,4.07,4.07,0,0,0-.09.79c-.11.24-.23.5-.35.79s-.23.61-.35,1a14.72,14.72,0,0,1-1.49,1.93,9.8,9.8,0,0,1-1.84,1.58,16.17,16.17,0,0,1-3,.79,19.91,19.91,0,0,1-3.16.26,8.61,8.61,0,0,1-2.37-.7,15.61,15.61,0,0,1-2.18-1.23,9.51,9.51,0,0,1-1.84-2,13.19,13.19,0,0,1-1.32-2.37v-.87a.64.64,0,0,1-.17-.44V20.5a14.21,14.21,0,0,1,1-4.56,11.86,11.86,0,0,1,2.63-3.85,16.79,16.79,0,0,1,1.84-1,4.3,4.3,0,0,1,1.84-.44,1.49,1.49,0,0,1,.7-.18h.7ZM87.94,38v81.47H72.52V38Z"/><path class="cls-1" d="M142.24,37.49a3.69,3.69,0,0,0,1.4.09,13.33,13.33,0,0,1,1.4-.09,6.16,6.16,0,0,1,1.4-.17h1.41a50,50,0,0,1,5,.26,29.14,29.14,0,0,1,5,1,23.75,23.75,0,0,1,5.35,1.66A30.44,30.44,0,0,1,168,42.93a36,36,0,0,1,8.76,8.58,30.72,30.72,0,0,1,5.08,11.21v56.42h-14.9V69.73a16.55,16.55,0,0,0-1-4.46,27.37,27.37,0,0,0-2-4.3,17.56,17.56,0,0,0-5.52-6.65,16.76,16.76,0,0,0-8.15-3.16,4.75,4.75,0,0,1-1-.09,4.91,4.91,0,0,0-.79-.08,1.73,1.73,0,0,0-.79-.18h-1a17.26,17.26,0,0,0-2.9.26,16.92,16.92,0,0,0-2.89.79,17.81,17.81,0,0,0-7.44,3.86,15.73,15.73,0,0,0-4.65,6.83c-.23,1.17-.47,2.34-.7,3.51s-.41,2.27-.52,3.32-.21,2.34-.27,3.51-.08,2.34-.08,3.5v42.75H112.28V71.49a33.21,33.21,0,0,1,2.54-12.71,38.3,38.3,0,0,1,6.92-11.12A38.12,38.12,0,0,1,131.2,41a33.66,33.66,0,0,1,11-3.33Z"/><path class="cls-1" d="M228.94.35c1.29-.11,2.49-.2,3.6-.26S234.78,0,236,0s2.31,0,3.42.09a24.59,24.59,0,0,1,3.42.43V14h-13l-5.43.87c-1,.59-2,1.2-3,1.84a19.58,19.58,0,0,0-2.63,2.19c-.47.47-.87.91-1.23,1.32a5.13,5.13,0,0,0-.87,1.49,6.34,6.34,0,0,0-.26,1,8,8,0,0,1-.27,1c-.11.36-.2.68-.26,1a4.75,4.75,0,0,0-.09,1V37.49H241V51.86H215.8v67.28H200.91v-93a31.25,31.25,0,0,1,.7-4.56,19.6,19.6,0,0,1,1.58-4.38,18.82,18.82,0,0,1,2.28-4.47,27.5,27.5,0,0,1,3.15-3.77,21.59,21.59,0,0,1,3.68-3,34.63,34.63,0,0,1,4.2-2.28,43.21,43.21,0,0,1,6.14-2,48,48,0,0,1,6.3-1.15Z"/><path class="cls-1" d="M289.9,37.32a35.86,35.86,0,0,1,6.05.53,32.28,32.28,0,0,1,5.87,1.57,44.06,44.06,0,0,1,8.32,4,41.13,41.13,0,0,1,7.27,5.78,42.64,42.64,0,0,1,5.87,7.36,35.74,35.74,0,0,1,3.94,8.59,42.3,42.3,0,0,1,1.84,9.11,57.47,57.47,0,0,1,.09,9.46,33.88,33.88,0,0,1-1.93,8.94,46,46,0,0,1-4,8.41,41.8,41.8,0,0,1-5.78,7.45,43.29,43.29,0,0,1-7.36,6,39.75,39.75,0,0,1-8.32,3.68,41.1,41.1,0,0,1-9,1.75c-.59.11-1.14.2-1.67.26a14.59,14.59,0,0,1-1.66.09,8.34,8.34,0,0,1-1.67.18h-1.66a49.48,49.48,0,0,1-5.87-.35,54.57,54.57,0,0,1-5.87-1.06,43.88,43.88,0,0,1-8.5-3.76,50.7,50.7,0,0,1-7.62-5.35,51.75,51.75,0,0,1-6.05-7.27,42,42,0,0,1-4.46-8.32,52.28,52.28,0,0,1-1.93-7,36.27,36.27,0,0,1-.7-7.18V78.14a5.33,5.33,0,0,1,.09-.87,7.42,7.42,0,0,0,.08-1,39.53,39.53,0,0,1,1.84-9.29,47.67,47.67,0,0,1,3.77-8.59,50.51,50.51,0,0,1,5.52-7.44,43.9,43.9,0,0,1,6.92-6.22A44,44,0,0,1,280.62,38c1.52-.23,3.06-.41,4.64-.52a31.26,31.26,0,0,1,4.64,0ZM292,51.51a9.13,9.13,0,0,1-1.32-.09,9.52,9.52,0,0,0-1.14-.08,5.28,5.28,0,0,0-1.31-.18h-1.31a17.29,17.29,0,0,0-1.76.09,17.09,17.09,0,0,1-1.75.09l-1.75.35a10.28,10.28,0,0,0-1.75.52,22.88,22.88,0,0,0-6.49,2.72A24.16,24.16,0,0,0,268,59.57a34.88,34.88,0,0,0-3.68,4.73,26.27,26.27,0,0,0-2.63,5.43,54.59,54.59,0,0,0-1.05,6.14,37.91,37.91,0,0,0-.17,6.3,25.82,25.82,0,0,0,1,6,28.91,28.91,0,0,0,2.28,5.61,20.08,20.08,0,0,0,3.5,5,43.91,43.91,0,0,0,4.56,4.12,29.27,29.27,0,0,0,5.51,2.89,23.3,23.3,0,0,0,5.88,1.49,21.12,21.12,0,0,0,2.1.26q1,.09,1.92.09a24.83,24.83,0,0,0,4.21-.35,23.14,23.14,0,0,0,4-1,22.48,22.48,0,0,0,5.52-2.45,26.94,26.94,0,0,0,4.82-3.86,21.85,21.85,0,0,0,4-4.55,27.25,27.25,0,0,0,2.8-5.44,19.62,19.62,0,0,0,1.23-4.2,27,27,0,0,0,.35-4.38V79.46a9.11,9.11,0,0,0-.18-1.84,21.56,21.56,0,0,0-.52-6.13,26.32,26.32,0,0,0-2.11-5.79,22.3,22.3,0,0,0-3.5-5.34,27.54,27.54,0,0,0-4.56-4.12,21.14,21.14,0,0,0-5.34-3.06,23.34,23.34,0,0,0-6-1.49Z"/><path class="cls-1" d="M384.32,37.49v13c-1.76,0-3.51.09-5.26.26a29.06,29.06,0,0,0-5.08,1,21,21,0,0,0-4.29,1.84,27.4,27.4,0,0,0-3.94,2.71A27.57,27.57,0,0,0,362.59,60a18.63,18.63,0,0,0-2.28,4.47A49,49,0,0,0,359.26,70a43.75,43.75,0,0,0-.35,5.52v43.62H344V38h14V48q1.41-1.75,3.07-3.51a17.09,17.09,0,0,1,3.77-3,24.58,24.58,0,0,1,4.2-2.1,22,22,0,0,1,4.56-1.22c1.17-.24,2.3-.44,3.41-.62a22.56,22.56,0,0,1,3.42-.26h1a3.24,3.24,0,0,1,1,.17,5.6,5.6,0,0,1,1,.09,4.85,4.85,0,0,0,1,.09Z"/><path class="cls-1" d="M472.26,1.23V80.42a41.14,41.14,0,0,1-1.58,10.08,48.8,48.8,0,0,1-3.85,9.37,33.17,33.17,0,0,1-3.94,6.57,34.08,34.08,0,0,1-5.35,5.52,42.79,42.79,0,0,1-6.39,4,50.94,50.94,0,0,1-7.1,3,34.54,34.54,0,0,0-3.77.61,31.43,31.43,0,0,1-3.94.61c-.58,0-1.2,0-1.84.09s-1.31.09-2,.09h-1.76a3.89,3.89,0,0,1-.78-.09,4.92,4.92,0,0,0-1-.09,42.18,42.18,0,0,1-7.62-.69,38.18,38.18,0,0,1-7.27-2.11,43.46,43.46,0,0,1-6.4-4.12,38.14,38.14,0,0,1-5.51-5.16,48.17,48.17,0,0,1-4.83-6,44.72,44.72,0,0,1-3.76-6.75,49.53,49.53,0,0,1-2.28-7.18,40.89,40.89,0,0,1-1.05-7.53A47.46,47.46,0,0,1,399,52a45,45,0,0,1,11.74-9.81A41.45,41.45,0,0,1,425,37.14a54.68,54.68,0,0,1,26.63,5.44V57.12A45.29,45.29,0,0,0,446.06,54a56.5,56.5,0,0,0-5.87-2.46,21.73,21.73,0,0,0-5-1.14,28.78,28.78,0,0,0-5-.08,20.13,20.13,0,0,0-4.91.61,27.07,27.07,0,0,0-4.73,1.66,23.18,23.18,0,0,0-8.67,5.52,22.81,22.81,0,0,0-5.52,8.85A22.09,22.09,0,0,0,404.89,72a32.19,32.19,0,0,0-.44,5.26,25.48,25.48,0,0,0,.53,5.17,38.15,38.15,0,0,0,1.4,5,32.87,32.87,0,0,0,4.55,8.85,32.52,32.52,0,0,0,7,7.09,29.61,29.61,0,0,0,4.65,2,26.32,26.32,0,0,0,5,1.14c.7.11,1.4.2,2.1.26s1.4.09,2.1.09a24.26,24.26,0,0,0,2.9-.18l2.89-.35a35.54,35.54,0,0,0,4.81-1.75,16,16,0,0,0,4.3-2.8,26.76,26.76,0,0,0,6.83-6.92,23,23,0,0,0,3.68-9V1.23Z"/></g></g></svg>