<?xml version="1.0" encoding="utf-8"?>
<!-- Generator: Adobe Illustrator 21.1.0, SVG Export Plug-In . SVG Version: 6.00 Build 0)  -->
<svg version="1.1" id="Ebene_1" xmlns="http://www.w3.org/2000/svg" xmlns:xlink="http://www.w3.org/1999/xlink" x="0px" y="0px"
	 viewBox="0 0 141.7 141.7" style="enable-background:new 0 0 141.7 141.7;" xml:space="preserve">
<style type="text/css">
	.st0{fill:#D50F2E;}
	.st1{fill:#EDEDED;}
	.st2{fill:#FFFFFF;}
</style>
<g>
	<g>
		<g>
			<g>
				<circle class="st0" cx="70.9" cy="70.9" r="66.9"/>
				<path class="st1" d="M70.8,141.7c-39,0-70.8-31.8-70.8-70.9S31.8,0,70.8,0s70.9,31.8,70.9,70.9S109.9,141.7,70.8,141.7z M70.8,8
					C36.2,8,8,36.2,8,70.8s28.2,62.8,62.8,62.8s62.8-28.2,62.8-62.8S105.5,8,70.8,8z"/>
			</g>
		</g>
	</g>
	<g>
		<path class="st2" d="M108.3,58.4l-2.8,1.7V40c0-0.7-0.6-1.3-1.3-1.3H37.4c-0.7,0-1.3,0.6-1.3,1.3v20l-2.8-1.7
			c-1.2,0.6-2.1,1.9-2.1,3.4v40.8c0,0.8,0.2,1.5,0.6,2.1l32-28.1l-25.2-15V41.2H103v20.3l-25.2,15l32,28.1c0.4-0.6,0.6-1.3,0.6-2.1
			V61.7C110.4,60.3,109.5,59,108.3,58.4z"/>
		<path class="st2" d="M70.8,80.6l-3.3-1.9l-35,26.7c0.7,0.6,1.6,1,2.5,1h71.5c1,0,1.9-0.4,2.5-1L74,78.7L70.8,80.6z"/>
		<path class="st2" d="M73.7,51.3v1.4c0,0-1.4-1.8-3.7-1.8c-4.2,0-6.8,3.5-6.8,7.7c0,4.6,3.4,7.5,6.9,7.5c1.7,0,3.4-0.6,4.7-2.4
			c0.5,1.6,2.1,2.7,3.7,2.7c3.3,0,5.5-3.2,5.5-8c0-7.5-5.6-13.2-12.9-13.2c-7.4,0-13.4,6-13.4,13.4c0,7.3,5.6,12.9,13,12.9
			c2.4,0,5.5-1,7.3-2.6l-1.4-2.4c-1.8,1.7-4.1,2.4-5.9,2.4c-5.7,0-10.1-4.5-10.1-10.4c0-6,4.7-11,10.5-11c6.5,0,10.1,4.8,10.1,10.8
			c0,2.9-1.1,5-2.3,5c-0.6,0-1-0.5-1-1.7V51.3H73.7z M70.6,62.4c-1.9,0-3.1-1.9-3.1-4c0-2,1.2-3.7,3-3.7c2.1,0,3.2,1.7,3.2,3.8
			C73.8,60.6,72.7,62.4,70.6,62.4z"/>
		<polygon class="st2" points="70.8,27.4 59,36.4 82.7,36.4 		"/>
	</g>
</g>
</svg>
